{
  "accessors": [
    {
      "bufferView": 2,
      "componentType": 5126,
      "count": 29715,
      "max": [
        -127.43370056152344,
        -29.613487243652344,
        -208.18421936035156
      ],
      "min": [
        -211.58509826660156,
        -117.35258483886719,
        -329.33041381835938
      ],
      "type": "VEC3"
    },
    {
      "bufferView": 2,
      "byteOffset": 356580,
      "componentType": 5126,
      "count": 29715,
      "max": [
        1,
        1,
        1
      ],
      "min": [
        -1,
        -1,
        -1
      ],
      "type": "VEC3"
    },
    {
      "bufferView": 1,
      "componentType": 5126,
      "count": 29715,
      "max": [
        4.257500171661377,
        1.1078000068664551
      ],
      "min": [
        -1.4759000539779663,
        -0.045600000768899918
      ],
      "type": "VEC2"
    },
    {
      "bufferView": 0,
      "componentType": 5125,
      "count": 49704,
      "max": [
        29714
      ],
      "min": [
        0
      ],
      "type": "SCALAR"
    },
    {
      "bufferView": 2,
      "byteOffset": 713160,
      "componentType": 5126,
      "count": 46086,
      "max": [
        -38.097999572753906,
        80.808616638183594,
        -253.94261169433594
      ],
      "min": [
        -101.77980041503906,
        -52.533885955810547,
        -329.33050537109375
      ],
      "type": "VEC3"
    },
    {
      "bufferView": 2,
      "byteOffset": 1266192,
      "componentType": 5126,
      "count": 46086,
      "max": [
        1,
        1,
        1
      ],
      "min": [
        -1,
        -1,
        -1
      ],
      "type": "VEC3"
    },
    {
      "bufferView": 1,
      "byteOffset": 237720,
      "componentType": 5126,
      "count": 46086,
      "max": [
        30.907899856567383,
        7.2381000518798828
      ],
      "min": [
        -4.2946000099182129,
        -9.3035001754760742
      ],
      "type": "VEC2"
    },
    {
      "bufferView": 0,
      "byteOffset": 198816,
      "componentType": 5125,
      "count": 75723,
      "max": [
        46085
      ],
      "min": [
        0
      ],
      "type": "SCALAR"
    },
    {
      "bufferView": 2,
      "byteOffset": 1819224,
      "componentType": 5126,
      "count": 65533,
      "max": [
        1089.3778076171875,
        988.58197021484375,
        327.38003540039062
      ],
      "min": [
        -971.17462158203125,
        -991.32928466796875,
        -282.29531860351562
      ],
      "type": "VEC3"
    },
    {
      "bufferView": 2,
      "byteOffset": 2605620,
      "componentType": 5126,
      "count": 65533,
      "max": [
        1,
        0.99934256076812744,
        1
      ],
      "min": [
        -1,
        -0.99993067979812622,
        -1
      ],
      "type": "VEC3"
    },
    {
      "bufferView": 1,
      "byteOffset": 606408,
      "componentType": 5126,
      "count": 65533,
      "max": [
        0.99720001220703125,
        0.99169999361038208
      ],
      "min": [
        0.010900000110268593,
        0.01810000091791153
      ],
      "type": "VEC2"
    },
    {
      "bufferView": 0,
      "byteOffset": 501708,
      "componentType": 5125,
      "count": 76257,
      "max": [
        65532
      ],
      "min": [
        0
      ],
      "type": "SCALAR"
    },
    {
      "bufferView": 2,
      "byteOffset": 3392016,
      "componentType": 5126,
      "count": 65534,
      "max": [
        1089.3145751953125,
        978.4049072265625,
        327.74978637695312
      ],
      "min": [
        -1089.3778076171875,
        -991.32928466796875,
        -281.044921875
      ],
      "type": "VEC3"
    },
    {
      "bufferView": 2,
      "byteOffset": 4178424,
      "componentType": 5126,
      "count": 65534,
      "max": [
        1,
        1,
        1
      ],
      "min": [
        -1,
        -0.99999815225601196,
        -1
      ],
      "type": "VEC3"
    },
    {
      "bufferView": 1,
      "byteOffset": 1130672,
      "componentType": 5126,
      "count": 65534,
      "max": [
        0.99720001220703125,
        0.99169999361038208
      ],
      "min": [
        0.017300000414252281,
        0.010200000368058681
      ],
      "type": "VEC2"
    },
    {
      "bufferView": 0,
      "byteOffset": 806736,
      "componentType": 5125,
      "count": 79941,
      "max": [
        65533
      ],
      "min": [
        0
      ],
      "type": "SCALAR"
    },
    {
      "bufferView": 2,
      "byteOffset": 4964832,
      "componentType": 5126,
      "count": 34702,
      "max": [
        734.86370849609375,
        991.32928466796875,
        329.33053588867188
      ],
      "min": [
        -1089.3778076171875,
        -945.372314453125,
        -301.684326171875
      ],
      "type": "VEC3"
    },
    {
      "bufferView": 2,
      "byteOffset": 5381256,
      "componentType": 5126,
      "count": 34702,
      "max": [
        1,
        1,
        1
      ],
      "min": [
        -0.99998140335083008,
        -0.99929720163345337,
        -1
      ],
      "type": "VEC3"
    },
    {
      "bufferView": 1,
      "byteOffset": 1654944,
      "componentType": 5126,
      "count": 34702,
      "max": [
        0.99290001392364502,
        0.98290002346038818
      ],
      "min": [
        0.017400000244379044,
        0.023600000888109207
      ],
      "type": "VEC2"
    },
    {
      "bufferView": 0,
      "byteOffset": 1126500,
      "componentType": 5125,
      "count": 40389,
      "max": [
        34701
      ],
      "min": [
        0
      ],
      "type": "SCALAR"
    },
    {
      "bufferView": 2,
      "byteOffset": 5797680,
      "componentType": 5126,
      "count": 26908,
      "max": [
        8.2836999893188477,
        932.78668212890625,
        -80.002677917480469
      ],
      "min": [
        -734.86376953125,
        -945.372314453125,
        -301.684326171875
      ],
      "type": "VEC3"
    },
    {
      "bufferView": 2,
      "byteOffset": 6120576,
      "componentType": 5126,
      "count": 26908,
      "max": [
        0.99988526105880737,
        1,
        0.99995154142379761
      ],
      "min": [
        -0.99992680549621582,
        -0.99660581350326538,
        -0.99990391731262207
      ],
      "type": "VEC3"
    },
    {
      "bufferView": 1,
      "byteOffset": 1932560,
      "componentType": 5126,
      "count": 26908,
      "max": [
        0.99290001392364502,
        0.9747999906539917
      ],
      "min": [
        0.010900000110268593,
        0.023600000888109207
      ],
      "type": "VEC2"
    },
    {
      "bufferView": 0,
      "byteOffset": 1288056,
      "componentType": 5125,
      "count": 31425,
      "max": [
        26907
      ],
      "min": [
        0
      ],
      "type": "SCALAR"
    },
    {
      "bufferView": 2,
      "byteOffset": 6443472,
      "componentType": 5126,
      "count": 990,
      "max": [
        149.92500305175781,
        -426.46328735351562,
        -209.55413818359375
      ],
      "min": [
        -149.70779418945312,
        -427.80230712890625,
        -216.87193298339844
      ],
      "type": "VEC3"
    },
    {
      "bufferView": 2,
      "byteOffset": 6455352,
      "componentType": 5126,
      "count": 990,
      "max": [
        1,
        0,
        0.99453955888748169
      ],
      "min": [
        -1,
        -0.96892964839935303,
        -0.99453616142272949
      ],
      "type": "VEC3"
    },
    {
      "bufferView": 1,
      "byteOffset": 2147824,
      "componentType": 5126,
      "count": 990,
      "max": [
        1.0167000293731689,
        1
      ],
      "min": [
        0.0027000000700354576,
        0
      ],
      "type": "VEC2"
    },
    {
      "bufferView": 0,
      "byteOffset": 1413756,
      "componentType": 5125,
      "count": 1350,
      "max": [
        989
      ],
      "min": [
        0
      ],
      "type": "SCALAR"
    },
    {
      "bufferView": 2,
      "byteOffset": 6467232,
      "componentType": 5126,
      "count": 96,
      "max": [
        150.34249877929688,
        -426.60800170898438,
        -209.28623962402344
      ],
      "min": [
        -150.34249877929688,
        -430.48809814453125,
        -217.23213195800781
      ],
      "type": "VEC3"
    },
    {
      "bufferView": 2,
      "byteOffset": 6468384,
      "componentType": 5126,
      "count": 96,
      "max": [
        0.69851857423782349,
        0.71997171640396118,
        0.39665108919143677
      ],
      "min": [
        -0.69851887226104736,
        -0.71966618299484253,
        -0.39635559916496277
      ],
      "type": "VEC3"
    },
    {
      "bufferView": 1,
      "byteOffset": 2155744,
      "componentType": 5126,
      "count": 96,
      "max": [
        0.24549999833106995,
        0
      ],
      "min": [
        0.21529999375343323,
        0
      ],
      "type": "VEC2"
    },
    {
      "bufferView": 0,
      "byteOffset": 1419156,
      "componentType": 5125,
      "count": 96,
      "max": [
        95
      ],
      "min": [
        0
      ],
      "type": "SCALAR"
    },
    {
      "bufferView": 2,
      "byteOffset": 6469536,
      "componentType": 5126,
      "count": 21649,
      "max": [
        25.605800628662109,
        -866.1177978515625,
        -244.38746643066406
      ],
      "min": [
        -25.575300216674805,
        -908.5714111328125,
        -324.77206420898438
      ],
      "type": "VEC3"
    },
    {
      "bufferView": 2,
      "byteOffset": 6729324,
      "componentType": 5126,
      "count": 21649,
      "max": [
        1,
        1,
        1
      ],
      "min": [
        -1,
        -1,
        -1
      ],
      "type": "VEC3"
    },
    {
      "bufferView": 1,
      "byteOffset": 2156512,
      "componentType": 5126,
      "count": 21649,
      "max": [
        3.9753000736236572,
        7.4260997772216797
      ],
      "min": [
        -7.6417999267578125,
        -11.257800102233887
      ],
      "type": "VEC2"
    },
    {
      "bufferView": 0,
      "byteOffset": 1419540,
      "componentType": 5125,
      "count": 35931,
      "max": [
        21648
      ],
      "min": [
        0
      ],
      "type": "SCALAR"
    },
    {
      "bufferView": 2,
      "byteOffset": 6989112,
      "componentType": 5126,
      "count": 46082,
      "max": [
        101.36219787597656,
        80.808616638183594,
        -253.94261169433594
      ],
      "min": [
        37.680301666259766,
        -52.533885955810547,
        -329.33050537109375
      ],
      "type": "VEC3"
    },
    {
      "bufferView": 2,
      "byteOffset": 7542096,
      "componentType": 5126,
      "count": 46082,
      "max": [
        1,
        1,
        1
      ],
      "min": [
        -1,
        -1,
        -1
      ],
      "type": "VEC3"
    },
    {
      "bufferView": 1,
      "byteOffset": 2329704,
      "componentType": 5126,
      "count": 46082,
      "max": [
        30.907899856567383,
        7.2381000518798828
      ],
      "min": [
        -4.2946000099182129,
        -9.3035001754760742
      ],
      "type": "VEC2"
    },
    {
      "bufferView": 0,
      "byteOffset": 1563264,
      "componentType": 5125,
      "count": 75744,
      "max": [
        46081
      ],
      "min": [
        0
      ],
      "type": "SCALAR"
    },
    {
      "bufferView": 2,
      "byteOffset": 8095080,
      "componentType": 5126,
      "count": 29691,
      "max": [
        211.16749572753906,
        -29.613487243652344,
        -208.18421936035156
      ],
      "min": [
        127.01609802246094,
        -117.35258483886719,
        -329.33041381835938
      ],
      "type": "VEC3"
    },
    {
      "bufferView": 2,
      "byteOffset": 8451372,
      "componentType": 5126,
      "count": 29691,
      "max": [
        1,
        1,
        1
      ],
      "min": [
        -1,
        -1,
        -1
      ],
      "type": "VEC3"
    },
    {
      "bufferView": 1,
      "byteOffset": 2698360,
      "componentType": 5126,
      "count": 29691,
      "max": [
        4.257500171661377,
        1.1078000068664551
      ],
      "min": [
        -1.4759000539779663,
        -0.045600000768899918
      ],
      "type": "VEC2"
    },
    {
      "bufferView": 0,
      "byteOffset": 1866240,
      "componentType": 5125,
      "count": 49686,
      "max": [
        29690
      ],
      "min": [
        0
      ],
      "type": "SCALAR"
    }
  ],
  "asset": {
    "extras": {
      "author": "neilnyinyi1997 (https://sketchfab.com/neilnyinyi1997)",
      "license": "CC-BY-4.0 (http://creativecommons.org/licenses/by/4.0/)",
      "source": "https://sketchfab.com/3d-models/airplane-n061213-c1a7a7e1da204476879abc0909a621f2",
      "title": "Airplane N061213"
    },
    "generator": "Sketchfab-10.14.1",
    "version": "2.0"
  },
  "bufferViews": [
    {
      "buffer": 0,
      "byteLength": 2064984,
      "byteOffset": 0,
      "name": "floatBufferViews",
      "target": 34963
    },
    {
      "buffer": 0,
      "byteLength": 2935888,
      "byteOffset": 2064984,
      "byteStride": 8,
      "name": "floatBufferViews",
      "target": 34962
    },
    {
      "buffer": 0,
      "byteLength": 8807664,
      "byteOffset": 5000872,
      "byteStride": 12,
      "name": "floatBufferViews",
      "target": 34962
    }
  ],
  "buffers": [
    {
      "byteLength": 13808536,
      "uri": "scene.bin"
    }
  ],
  "images": [
    {
      "uri": "textures/Material_baseColor.jpeg"
    }
  ],
  "materials": [
    {
      "doubleSided": true,
      "emissiveFactor": [
        0,
        0,
        0
      ],
      "name": "Material",
      "pbrMetallicRoughness": {
        "baseColorFactor": [
          1,
          1,
          1,
          1
        ],
        "baseColorTexture": {
          "index": 0,
          "texCoord": 0
        },
        "metallicFactor": 0,
        "roughnessFactor": 0.59999999999999998
      }
    }
  ],
  "meshes": [
    {
      "primitives": [
        {
          "attributes": {
            "NORMAL": 1,
            "POSITION": 0,
            "TEXCOORD_0": 2
          },
          "indices": 3,
          "material": 0,
          "mode": 4
        }
      ]
    },
    {
      "primitives": [
        {
          "attributes": {
            "NORMAL": 5,
            "POSITION": 4,
            "TEXCOORD_0": 6
          },
          "indices": 7,
          "material": 0,
          "mode": 4
        }
      ]
    },
    {
      "primitives": [
        {
          "attributes": {
            "NORMAL": 9,
            "POSITION": 8,
            "TEXCOORD_0": 10
          },
          "indices": 11,
          "material": 0,
          "mode": 4
        }
      ]
    },
    {
      "primitives": [
        {
          "attributes": {
            "NORMAL": 13,
            "POSITION": 12,
            "TEXCOORD_0": 14
          },
          "indices": 15,
          "material": 0,
          "mode": 4
        }
      ]
    },
    {
      "primitives": [
        {
          "attributes": {
            "NORMAL": 17,
            "POSITION": 16,
            "TEXCOORD_0": 18
          },
          "indices": 19,
          "material": 0,
          "mode": 4
        }
      ]
    },
    {
      "primitives": [
        {
          "attributes": {
            "NORMAL": 21,
            "POSITION": 20,
            "TEXCOORD_0": 22
          },
          "indices": 23,
          "material": 0,
          "mode": 4
        }
      ]
    },
    {
      "primitives": [
        {
          "attributes": {
            "NORMAL": 25,
            "POSITION": 24,
            "TEXCOORD_0": 26
          },
          "indices": 27,
          "material": 0,
          "mode": 4
        }
      ]
    },
    {
      "primitives": [
        {
          "attributes": {
            "NORMAL": 29,
            "POSITION": 28,
            "TEXCOORD_0": 30
          },
          "indices": 31,
          "material": 0,
          "mode": 4
        }
      ]
    },
    {
      "primitives": [
        {
          "attributes": {
            "NORMAL": 33,
            "POSITION": 32,
            "TEXCOORD_0": 34
          },
          "indices": 35,
          "material": 0,
          "mode": 4
        }
      ]
    },
    {
      "primitives": [
        {
          "attributes": {
            "NORMAL": 37,
            "POSITION": 36,
            "TEXCOORD_0": 38
          },
          "indices": 39,
          "material": 0,
          "mode": 4
        }
      ]
    },
    {
      "primitives": [
        {
          "attributes": {
            "NORMAL": 41,
            "POSITION": 40,
            "TEXCOORD_0": 42
          },
          "indices": 43,
          "material": 0,
          "mode": 4
        }
      ]
    }
  ],
  "nodes": [
    {
      "children": [
        1
      ],
      "name": "RootNode (gltf orientation matrix)",
      "rotation": [
        -0.70710678118654746,
        -0,
        -0,
        0.70710678118654757
      ]
    },
    {
      "children": [
        2
      ],
      "name": "RootNode (model correction matrix)"
    },
    {
      "children": [
        3,
        6,
        9,
        16,
        19,
        22,
        25,
        28
      ],
      "name": "Airplane N061213.3DS"
    },
    {
      "children": [
        4
      ],
      "matrix": [
        1,
        0,
        0,
        0,
        0,
        0,
        1,
        0,
        0,
        -1,
        0,
        0,
        0,
        1.4492385162157007e-05,
        -331.547119140625,
        1
      ],
      "name": "Archmod737"
    },
    {
      "children": [
        5
      ],
      "matrix": [
        1,
        0,
        0,
        0,
        0,
        -4.3711388286737843e-08,
        -0.999999999999998,
        0,
        0,
        0.999999999999998,
        -4.3711388286737843e-08,
        0,
        -0,
        331.54711914062494,
        3.0205178636055763e-13,
        1
      ],
      "name": "3DSMeshMatrix"
    },
    {
      "mesh": 0,
      "name": ""
    },
    {
      "children": [
        7
      ],
      "matrix": [
        1,
        0,
        0,
        0,
        0,
        0,
        1,
        0,
        0,
        -1,
        0,
        0,
        0,
        1.4492385162157007e-05,
        -331.547119140625,
        1
      ],
      "name": "Archmod736"
    },
    {
      "children": [
        8
      ],
      "matrix": [
        1,
        0,
        0,
        0,
        0,
        -4.3711388286737843e-08,
        -0.999999999999998,
        0,
        0,
        0.999999999999998,
        -4.3711388286737843e-08,
        0,
        -0,
        331.54711914062494,
        3.0205178636055763e-13,
        1
      ],
      "name": "3DSMeshMatrix"
    },
    {
      "mesh": 1,
      "name": ""
    },
    {
      "children": [
        10,
        14
      ],
      "matrix": [
        1,
        0,
        0,
        0,
        0,
        0,
        1,
        0,
        0,
        -1,
        0,
        0,
        0,
        1.4492385162157007e-05,
        -331.547119140625,
        1
      ],
      "name": "Archmod735"
    },
    {
      "children": [
        11,
        12,
        13
      ],
      "matrix": [
        1,
        0,
        0,
        0,
        0,
        -4.3711388286737843e-08,
        -0.999999999999998,
        0,
        0,
        0.999999999999998,
        -4.3711388286737843e-08,
        0,
        -0,
        331.54711914062494,
        3.0205178636055763e-13,
        1
      ],
      "name": "3DSMeshMatrix"
    },
    {
      "mesh": 2,
      "name": ""
    },
    {
      "mesh": 3,
      "name": ""
    },
    {
      "mesh": 4,
      "name": ""
    },
    {
      "children": [
        15
      ],
      "matrix": [
        1,
        0,
        0,
        0,
        0,
        -4.3711388286737843e-08,
        -0.999999999999998,
        0,
        0,
        0.999999999999998,
        -4.3711388286737843e-08,
        0,
        -0,
        331.54711914062494,
        3.0205178636055763e-13,
        1
      ],
      "name": "3DSMeshMatrix"
    },
    {
      "mesh": 5,
      "name": ""
    },
    {
      "children": [
        17
      ],
      "matrix": [
        1,
        0,
        0,
        0,
        0,
        0,
        1,
        0,
        0,
        -1,
        0,
        0,
        0,
        1.4492385162157007e-05,
        -331.547119140625,
        1
      ],
      "name": "Archmod734"
    },
    {
      "children": [
        18
      ],
      "matrix": [
        1,
        0,
        0,
        0,
        0,
        -4.3711388286737843e-08,
        -0.999999999999998,
        0,
        0,
        0.999999999999998,
        -4.3711388286737843e-08,
        0,
        -0,
        331.54711914062494,
        3.0205178636055763e-13,
        1
      ],
      "name": "3DSMeshMatrix"
    },
    {
      "mesh": 6,
      "name": ""
    },
    {
      "children": [
        20
      ],
      "matrix": [
        1,
        0,
        0,
        0,
        0,
        0,
        1,
        0,
        0,
        -1,
        0,
        0,
        0,
        1.4492385162157007e-05,
        -331.547119140625,
        1
      ],
      "name": "Archmod733"
    },
    {
      "children": [
        21
      ],
      "matrix": [
        1,
        0,
        0,
        0,
        0,
        -4.3711388286737843e-08,
        -0.999999999999998,
        0,
        0,
        0.999999999999998,
        -4.3711388286737843e-08,
        0,
        -0,
        331.54711914062494,
        3.0205178636055763e-13,
        1
      ],
      "name": "3DSMeshMatrix"
    },
    {
      "mesh": 7,
      "name": ""
    },
    {
      "children": [
        23
      ],
      "matrix": [
        1,
        0,
        0,
        0,
        0,
        0,
        1,
        0,
        0,
        -1,
        0,
        0,
        0,
        1.4492385162157007e-05,
        -331.547119140625,
        1
      ],
      "name": "Archmod732"
    },
    {
      "children": [
        24
      ],
      "matrix": [
        1,
        0,
        0,
        0,
        0,
        -4.3711388286737843e-08,
        -0.999999999999998,
        0,
        0,
        0.999999999999998,
        -4.3711388286737843e-08,
        0,
        -0,
        331.54711914062494,
        3.0205178636055763e-13,
        1
      ],
      "name": "3DSMeshMatrix"
    },
    {
      "mesh": 8,
      "name": ""
    },
    {
      "children": [
        26
      ],
      "matrix": [
        1,
        0,
        0,
        0,
        0,
        0,
        1,
        0,
        0,
        -1,
        0,
        0,
        0,
        1.4492385162157007e-05,
        -331.547119140625,
        1
      ],
      "name": "Archmod731"
    },
    {
      "children": [
        27
      ],
      "matrix": [
        1,
        0,
        0,
        0,
        0,
        -4.3711388286737843e-08,
        -0.999999999999998,
        0,
        0,
        0.999999999999998,
        -4.3711388286737843e-08,
        0,
        -0,
        331.54711914062494,
        3.0205178636055763e-13,
        1
      ],
      "name": "3DSMeshMatrix"
    },
    {
      "mesh": 9,
      "name": ""
    },
    {
      "children": [
        29
      ],
      "matrix": [
        1,
        0,
        0,
        0,
        0,
        0,
        1,
        0,
        0,
        -1,
        0,
        0,
        0,
        1.4492385162157007e-05,
        -331.547119140625,
        1
      ],
      "name": "Archmod73_"
    },
    {
      "children": [
        30
      ],
      "matrix": [
        1,
        0,
        0,
        0,
        0,
        -4.3711388286737843e-08,
        -0.999999999999998,
        0,
        0,
        0.999999999999998,
        -4.3711388286737843e-08,
        0,
        -0,
        331.54711914062494,
        3.0205178636055763e-13,
        1
      ],
      "name": "3DSMeshMatrix"
    },
    {
      "mesh": 10,
      "name": ""
    }
  ],
  "samplers": [
    {
      "magFilter": 9729,
      "minFilter": 9987,
      "wrapS": 10497,
      "wrapT": 10497
    }
  ],
  "scene": 0,
  "scenes": [
    {
      "name": "OSG_Scene",
      "nodes": [
        0
      ]
    }
  ],
  "textures": [
    {
      "sampler": 0,
      "source": 0
    }
  ]
}

